<svg width="22" height="22" viewBox="0 0 22 22" fill="none" xmlns="http://www.w3.org/2000/svg">
<path d="M12.8333 7.33335V5.50002C12.8333 4.4875 12.0125 3.66669 11 3.66669H4.58333C3.57081 3.66669 2.75 4.4875 2.75 5.50002V16.5C2.75 17.5125 3.57081 18.3334 4.58333 18.3334H11C12.0125 18.3334 12.8333 17.5125 12.8333 16.5V14.6667" stroke="#2F2B3D" stroke-opacity="0.9" stroke-width="1.5" stroke-linecap="round" stroke-linejoin="round"/>
<path d="M6.41667 10.25C6.00245 10.25 5.66667 10.5858 5.66667 11C5.66667 11.4142 6.00245 11.75 6.41667 11.75V10.25ZM19.25 11V11.75C19.5533 11.75 19.8268 11.5673 19.9429 11.287C20.059 11.0068 19.9948 10.6842 19.7803 10.4697L19.25 11ZM17.0303 7.71967C16.7374 7.42678 16.2626 7.42678 15.9697 7.71967C15.6768 8.01256 15.6768 8.48744 15.9697 8.78033L17.0303 7.71967ZM15.9697 13.2197C15.6768 13.5126 15.6768 13.9874 15.9697 14.2803C16.2626 14.5732 16.7374 14.5732 17.0303 14.2803L15.9697 13.2197ZM19.7803 11.5303C20.0732 11.2374 20.0732 10.7626 19.7803 10.4697C19.4874 10.1768 19.0126 10.1768 18.7197 10.4697L19.7803 11.5303ZM6.41667 11V11.75H19.25V11V10.25H6.41667V11ZM19.25 11L19.7803 10.4697L17.0303 7.71967L16.5 8.25L15.9697 8.78033L18.7197 11.5303L19.25 11ZM16.5 13.75L17.0303 14.2803L19.7803 11.5303L19.25 11L18.7197 10.4697L15.9697 13.2197L16.5 13.75Z" fill="#2F2B3D" fill-opacity="0.9"/>
</svg>
