<svg width="22" height="22" viewBox="0 0 22 22" fill="none" xmlns="http://www.w3.org/2000/svg">
<path fill-rule="evenodd" clip-rule="evenodd" d="M11 2.75001C11.121 2.75001 11.2411 2.75001 11.3602 2.75001C8.93029 5.00791 8.45902 8.67887 10.2398 11.4773C12.0206 14.2758 15.5457 15.4037 18.6202 14.1588C17.0319 17.9805 12.8579 20.034 8.86107 18.96C4.86423 17.8861 2.28165 14.017 2.82281 9.91392C3.36397 5.81084 6.86137 2.74367 11 2.74268V2.75001Z" stroke="#2F2B3D" stroke-opacity="0.9" stroke-width="1.5" stroke-linecap="round" stroke-linejoin="round"/>
<path d="M15.5833 3.6665C15.5833 4.67903 16.4041 5.49984 17.4167 5.49984C16.4041 5.49984 15.5833 6.32065 15.5833 7.33317C15.5833 6.32065 14.7625 5.49984 13.75 5.49984C14.7625 5.49984 15.5833 4.67903 15.5833 3.6665" stroke="#2F2B3D" stroke-opacity="0.9" stroke-width="1.5" stroke-linecap="round" stroke-linejoin="round"/>
<path d="M17.4166 9.33317C17.0024 9.33317 16.6666 9.66896 16.6666 10.0832C16.6666 10.4974 17.0024 10.8332 17.4166 10.8332V9.33317ZM19.25 10.8332C19.6642 10.8332 20 10.4974 20 10.0832C20 9.66896 19.6642 9.33317 19.25 9.33317V10.8332ZM19.0833 9.1665C19.0833 8.75229 18.7475 8.4165 18.3333 8.4165C17.9191 8.4165 17.5833 8.75229 17.5833 9.1665H19.0833ZM17.5833 10.9998C17.5833 11.4141 17.9191 11.7498 18.3333 11.7498C18.7475 11.7498 19.0833 11.4141 19.0833 10.9998H17.5833ZM17.4166 10.0832V10.8332H19.25V10.0832V9.33317H17.4166V10.0832ZM18.3333 9.1665H17.5833V10.9998H18.3333H19.0833V9.1665H18.3333Z" fill="#2F2B3D" fill-opacity="0.9"/>
</svg>
